<svg width="40" height="40" viewBox="0 0 40 40" fill="none" xmlns="http://www.w3.org/2000/svg">
<rect x="1" y="1" width="38" height="38" rx="19" stroke="#0075FF" stroke-width="2"/>
<path d="M20 19.75C16.83 19.75 14.25 17.17 14.25 14C14.25 10.83 16.83 8.25 20 8.25C23.17 8.25 25.75 10.83 25.75 14C25.75 17.17 23.17 19.75 20 19.75ZM20 9.75C17.66 9.75 15.75 11.66 15.75 14C15.75 16.34 17.66 18.25 20 18.25C22.34 18.25 24.25 16.34 24.25 14C24.25 11.66 22.34 9.75 20 9.75Z" fill="#0075FF"/>
<path d="M11.4102 29.75C11.0002 29.75 10.6602 29.41 10.6602 29C10.6602 24.73 14.8502 21.25 20.0002 21.25C21.0102 21.25 22.0001 21.38 22.9601 21.65C23.3601 21.76 23.5902 22.17 23.4802 22.57C23.3702 22.97 22.9601 23.2 22.5602 23.09C21.7402 22.86 20.8802 22.75 20.0002 22.75C15.6802 22.75 12.1602 25.55 12.1602 29C12.1602 29.41 11.8202 29.75 11.4102 29.75Z" fill="#0075FF"/>
<path d="M26 29.75C24.82 29.75 23.7 29.31 22.83 28.52C22.48 28.22 22.17 27.85 21.93 27.44C21.49 26.72 21.25 25.87 21.25 25C21.25 23.75 21.73 22.58 22.59 21.69C23.49 20.76 24.7 20.25 26 20.25C27.36 20.25 28.65 20.83 29.53 21.83C30.31 22.7 30.75 23.82 30.75 25C30.75 25.38 30.7 25.76 30.6 26.12C30.5 26.57 30.31 27.04 30.05 27.45C29.22 28.87 27.66 29.75 26 29.75ZM26 21.75C25.11 21.75 24.29 22.1 23.67 22.73C23.08 23.34 22.75 24.14 22.75 25C22.75 25.59 22.91 26.17 23.22 26.67C23.38 26.95 23.59 27.2 23.83 27.41C24.43 27.96 25.2 28.26 26 28.26C27.13 28.26 28.2 27.66 28.78 26.69C28.95 26.41 29.08 26.09 29.15 25.78C29.22 25.52 29.25 25.27 29.25 25.01C29.25 24.21 28.95 23.44 28.41 22.84C27.81 22.14 26.93 21.75 26 21.75Z" fill="#0075FF"/>
<path d="M27.4998 25.73H24.5098C24.0998 25.73 23.7598 25.39 23.7598 24.98C23.7598 24.57 24.0998 24.23 24.5098 24.23H27.4998C27.9098 24.23 28.2498 24.57 28.2498 24.98C28.2498 25.39 27.9098 25.73 27.4998 25.73Z" fill="#0075FF"/>
<path d="M26 27.26C25.59 27.26 25.25 26.92 25.25 26.51V23.52C25.25 23.11 25.59 22.77 26 22.77C26.41 22.77 26.75 23.11 26.75 23.52V26.51C26.75 26.93 26.41 27.26 26 27.26Z" fill="#0075FF"/>
</svg>
