<svg width="70" height="70" viewBox="0 0 70 70" fill="none" xmlns="http://www.w3.org/2000/svg">
<rect x="1.5" y="1.5" width="67" height="67" rx="13.5" stroke="white" stroke-width="3"/>
<path d="M9.692 41V28.4H12.032V39.02H18.62V41H9.692ZM26.1429 41.18C25.1589 41.18 24.2529 41.018 23.4249 40.694C22.5969 40.37 21.8769 39.92 21.2649 39.344C20.6529 38.756 20.1789 38.072 19.8429 37.292C19.5069 36.5 19.3389 35.636 19.3389 34.7C19.3389 33.764 19.5069 32.906 19.8429 32.126C20.1789 31.334 20.6529 30.65 21.2649 30.074C21.8769 29.486 22.5969 29.03 23.4249 28.706C24.2529 28.382 25.1529 28.22 26.1249 28.22C27.1089 28.22 28.0089 28.382 28.8249 28.706C29.6529 29.03 30.3729 29.486 30.9849 30.074C31.5969 30.65 32.0709 31.334 32.4069 32.126C32.7429 32.906 32.9109 33.764 32.9109 34.7C32.9109 35.636 32.7429 36.5 32.4069 37.292C32.0709 38.084 31.5969 38.768 30.9849 39.344C30.3729 39.92 29.6529 40.37 28.8249 40.694C28.0089 41.018 27.1149 41.18 26.1429 41.18ZM26.1249 39.128C26.7609 39.128 27.3489 39.02 27.8889 38.804C28.4289 38.588 28.8969 38.282 29.2929 37.886C29.6889 37.478 29.9949 37.01 30.2109 36.482C30.4389 35.942 30.5529 35.348 30.5529 34.7C30.5529 34.052 30.4389 33.464 30.2109 32.936C29.9949 32.396 29.6889 31.928 29.2929 31.532C28.8969 31.124 28.4289 30.812 27.8889 30.596C27.3489 30.38 26.7609 30.272 26.1249 30.272C25.4889 30.272 24.9009 30.38 24.3609 30.596C23.8329 30.812 23.3649 31.124 22.9569 31.532C22.5609 31.928 22.2489 32.396 22.0209 32.936C21.8049 33.464 21.6969 34.052 21.6969 34.7C21.6969 35.336 21.8049 35.924 22.0209 36.464C22.2489 37.004 22.5609 37.478 22.9569 37.886C23.3529 38.282 23.8209 38.588 24.3609 38.804C24.9009 39.02 25.4889 39.128 26.1249 39.128ZM41.2772 41.18C40.2932 41.18 39.3872 41.024 38.5592 40.712C37.7432 40.388 37.0292 39.938 36.4172 39.362C35.8052 38.774 35.3312 38.084 34.9952 37.292C34.6592 36.5 34.4912 35.636 34.4912 34.7C34.4912 33.764 34.6592 32.9 34.9952 32.108C35.3312 31.316 35.8052 30.632 36.4172 30.056C37.0412 29.468 37.7672 29.018 38.5952 28.706C39.4232 28.382 40.3292 28.22 41.3132 28.22C42.3812 28.22 43.3412 28.394 44.1932 28.742C45.0572 29.09 45.7832 29.6 46.3712 30.272L44.8952 31.712C44.4032 31.22 43.8692 30.86 43.2932 30.632C42.7292 30.392 42.1052 30.272 41.4212 30.272C40.7612 30.272 40.1492 30.38 39.5852 30.596C39.0212 30.812 38.5352 31.118 38.1272 31.514C37.7192 31.91 37.4012 32.378 37.1732 32.918C36.9572 33.458 36.8492 34.052 36.8492 34.7C36.8492 35.336 36.9572 35.924 37.1732 36.464C37.4012 37.004 37.7192 37.478 38.1272 37.886C38.5352 38.282 39.0152 38.588 39.5672 38.804C40.1192 39.02 40.7312 39.128 41.4032 39.128C42.0272 39.128 42.6272 39.032 43.2032 38.84C43.7912 38.636 44.3492 38.3 44.8772 37.832L46.2092 39.578C45.5492 40.106 44.7812 40.508 43.9052 40.784C43.0412 41.048 42.1652 41.18 41.2772 41.18ZM43.9952 39.272V34.556H46.2092V39.578L43.9952 39.272ZM55.1995 41.18C54.2155 41.18 53.3095 41.018 52.4815 40.694C51.6535 40.37 50.9335 39.92 50.3215 39.344C49.7095 38.756 49.2355 38.072 48.8995 37.292C48.5635 36.5 48.3955 35.636 48.3955 34.7C48.3955 33.764 48.5635 32.906 48.8995 32.126C49.2355 31.334 49.7095 30.65 50.3215 30.074C50.9335 29.486 51.6535 29.03 52.4815 28.706C53.3095 28.382 54.2095 28.22 55.1815 28.22C56.1655 28.22 57.0655 28.382 57.8815 28.706C58.7095 29.03 59.4295 29.486 60.0415 30.074C60.6535 30.65 61.1275 31.334 61.4635 32.126C61.7995 32.906 61.9675 33.764 61.9675 34.7C61.9675 35.636 61.7995 36.5 61.4635 37.292C61.1275 38.084 60.6535 38.768 60.0415 39.344C59.4295 39.92 58.7095 40.37 57.8815 40.694C57.0655 41.018 56.1715 41.18 55.1995 41.18ZM55.1815 39.128C55.8175 39.128 56.4055 39.02 56.9455 38.804C57.4855 38.588 57.9535 38.282 58.3495 37.886C58.7455 37.478 59.0515 37.01 59.2675 36.482C59.4955 35.942 59.6095 35.348 59.6095 34.7C59.6095 34.052 59.4955 33.464 59.2675 32.936C59.0515 32.396 58.7455 31.928 58.3495 31.532C57.9535 31.124 57.4855 30.812 56.9455 30.596C56.4055 30.38 55.8175 30.272 55.1815 30.272C54.5455 30.272 53.9575 30.38 53.4175 30.596C52.8895 30.812 52.4215 31.124 52.0135 31.532C51.6175 31.928 51.3055 32.396 51.0775 32.936C50.8615 33.464 50.7535 34.052 50.7535 34.7C50.7535 35.336 50.8615 35.924 51.0775 36.464C51.3055 37.004 51.6175 37.478 52.0135 37.886C52.4095 38.282 52.8775 38.588 53.4175 38.804C53.9575 39.02 54.5455 39.128 55.1815 39.128Z" fill="white"/>
</svg>
