<svg width="20" height="20" viewBox="0 0 20 20" fill="none" xmlns="http://www.w3.org/2000/svg">
<rect x="1" y="1" width="18" height="18" rx="4" fill="black" stroke="black" stroke-width="2"/>
<path fill-rule="evenodd" clip-rule="evenodd" d="M14.2403 5.75707C14.6308 6.1476 14.6308 6.78076 14.2403 7.17129L11.4116 9.99999L14.2399 12.8283C14.6304 13.2188 14.6304 13.852 14.2399 14.2425C13.8494 14.633 13.2162 14.633 12.8257 14.2425L9.9974 11.4142L7.16924 14.2424C6.77872 14.6329 6.14555 14.6329 5.75503 14.2424C5.3645 13.8518 5.3645 13.2187 5.75503 12.8281L8.58318 9.99999L5.75463 7.17144C5.36411 6.78092 5.36411 6.14775 5.75463 5.75723C6.14516 5.3667 6.77832 5.3667 7.16885 5.75723L9.9974 8.58578L12.8261 5.75707C13.2166 5.36655 13.8498 5.36655 14.2403 5.75707Z" fill="white"/>
</svg>
