<svg width="60" height="60" viewBox="0 0 60 60" fill="none" xmlns="http://www.w3.org/2000/svg">
<g filter="url(#filter0_d_1_813)">
<rect x="15" y="10" width="30" height="30" rx="10" fill="white"/>
</g>
<path d="M32.5 33.9583H27.5C22.975 33.9583 21.0416 32.025 21.0416 27.5V22.5C21.0416 17.975 22.975 16.0416 27.5 16.0416H32.5C37.025 16.0416 38.9583 17.975 38.9583 22.5V27.5C38.9583 32.025 37.025 33.9583 32.5 33.9583ZM27.5 17.2916C23.6583 17.2916 22.2916 18.6583 22.2916 22.5V27.5C22.2916 31.3416 23.6583 32.7083 27.5 32.7083H32.5C36.3416 32.7083 37.7083 31.3416 37.7083 27.5V22.5C37.7083 18.6583 36.3416 17.2916 32.5 17.2916H27.5Z" fill="black"/>
<path d="M30 27.7167C29.8417 27.7167 29.6833 27.6583 29.5583 27.5333L27.0583 25.0333C26.8167 24.7917 26.8167 24.3917 27.0583 24.15C27.3 23.9083 27.7 23.9083 27.9417 24.15L30 26.2083L32.0583 24.15C32.3 23.9083 32.7 23.9083 32.9417 24.15C33.1833 24.3917 33.1833 24.7917 32.9417 25.0333L30.4417 27.5333C30.3167 27.6583 30.1583 27.7167 30 27.7167Z" fill="black"/>
<path d="M30 27.7167C29.6583 27.7167 29.375 27.4334 29.375 27.0917V20.425C29.375 20.0834 29.6583 19.8 30 19.8C30.3417 19.8 30.625 20.0834 30.625 20.425V27.0917C30.625 27.4417 30.3417 27.7167 30 27.7167Z" fill="black"/>
<path d="M30 30.1916C28.2416 30.1916 26.475 29.9083 24.8 29.35C24.475 29.2416 24.3 28.8833 24.4083 28.5583C24.5166 28.2333 24.8666 28.05 25.2 28.1666C28.3 29.2 31.7083 29.2 34.8083 28.1666C35.1333 28.0583 35.4916 28.2333 35.6 28.5583C35.7083 28.8833 35.5333 29.2416 35.2083 29.35C33.525 29.9166 31.7583 30.1916 30 30.1916Z" fill="black"/>
<defs>
<filter id="filter0_d_1_813" x="0" y="0" width="60" height="60" filterUnits="userSpaceOnUse" color-interpolation-filters="sRGB">
<feFlood flood-opacity="0" result="BackgroundImageFix"/>
<feColorMatrix in="SourceAlpha" type="matrix" values="0 0 0 0 0 0 0 0 0 0 0 0 0 0 0 0 0 0 127 0" result="hardAlpha"/>
<feOffset dy="5"/>
<feGaussianBlur stdDeviation="7.5"/>
<feComposite in2="hardAlpha" operator="out"/>
<feColorMatrix type="matrix" values="0 0 0 0 0 0 0 0 0 0 0 0 0 0 0 0 0 0 0.15 0"/>
<feBlend mode="normal" in2="BackgroundImageFix" result="effect1_dropShadow_1_813"/>
<feBlend mode="normal" in="SourceGraphic" in2="effect1_dropShadow_1_813" result="shape"/>
</filter>
</defs>
</svg>
