<svg width="30" height="30" viewBox="0 0 30 30" fill="none" xmlns="http://www.w3.org/2000/svg">
<rect x="1" y="1" width="28" height="28" rx="9" stroke="#FF0000" stroke-width="2"/>
<path fill-rule="evenodd" clip-rule="evenodd" d="M8.63641 21.7781C8.24588 21.3876 8.24588 20.7544 8.63641 20.3639L13.5862 15.4142L8.63641 10.4644C8.24589 10.0739 8.24589 9.44074 8.63641 9.05022C9.02693 8.65969 9.6601 8.65969 10.0506 9.05022L15.0004 14L19.9501 9.05022C20.3406 8.65969 20.9738 8.65969 21.3643 9.05022C21.7549 9.44074 21.7549 10.0739 21.3643 10.4644L16.4146 15.4142L21.3643 20.3639C21.7549 20.7544 21.7549 21.3876 21.3643 21.7781C20.9738 22.1687 20.3406 22.1687 19.9501 21.7781L15.0004 16.8284L10.0506 21.7781C9.6601 22.1687 9.02693 22.1687 8.63641 21.7781Z" fill="#FF0000"/>
</svg>
