<svg width="28" height="28" viewBox="0 0 28 28" fill="none" xmlns="http://www.w3.org/2000/svg">
<path d="M26.5416 10.5L26.5416 17.5C26.5416 23.835 23.8349 26.5416 17.4999 26.5416L10.4999 26.5416C4.16492 26.5416 1.45825 23.835 1.45825 17.5L1.45825 10.5C1.45825 4.16496 4.16492 1.45829 10.4999 1.45829L17.4999 1.45829C23.8349 1.45829 26.5416 4.16496 26.5416 10.5ZM3.20825 17.5C3.20825 22.8783 5.12158 24.7916 10.4999 24.7916L17.4999 24.7916C22.8783 24.7916 24.7916 22.8783 24.7916 17.5L24.7916 10.5C24.7916 5.12162 22.8783 3.20829 17.4999 3.20829L10.4999 3.20829C5.12158 3.20829 3.20825 5.12163 3.20825 10.5L3.20825 17.5Z" fill="#0075FF"/>
<path d="M22.4584 9.82336C22.4584 10.3017 22.0618 10.6984 21.5834 10.6984L17.0334 10.6984C16.5551 10.6984 16.1584 10.3017 16.1584 9.82336C16.1584 9.34503 16.5551 8.94836 17.0334 8.94836L21.5834 8.94836C22.0618 8.94836 22.4584 9.34503 22.4584 9.82336Z" fill="#0075FF"/>
<path d="M9.56675 9.82336C9.56675 10.3017 9.17008 10.6984 8.69175 10.6984L6.41675 10.6984C5.93841 10.6984 5.54175 10.3017 5.54175 9.82336C5.54175 9.34503 5.93841 8.94836 6.41675 8.94836L8.69175 8.94836C9.17008 8.94836 9.56675 9.34503 9.56675 9.82336Z" fill="#0075FF"/>
<path d="M15.6333 9.82335C15.6333 11.9817 13.8833 13.7317 11.725 13.7317C9.56665 13.7317 7.81665 11.9817 7.81665 9.82335C7.81665 7.66502 9.56665 5.91502 11.725 5.91502C13.8833 5.91502 15.6333 7.67669 15.6333 9.82335ZM9.56665 9.82335C9.56665 11.0134 10.535 11.9817 11.725 11.9817C12.915 11.9817 13.8833 11.0134 13.8833 9.82335C13.8833 8.63335 12.915 7.66502 11.725 7.66502C10.535 7.66502 9.56665 8.64502 9.56665 9.82335Z" fill="#0075FF"/>
<path d="M22.4583 18.1766C22.4583 18.655 22.0617 19.0516 21.5833 19.0516L19.3083 19.0516C18.83 19.0516 18.4333 18.655 18.4333 18.1766C18.4333 17.6983 18.83 17.3016 19.3083 17.3016L21.5833 17.3016C22.0617 17.3016 22.4583 17.6866 22.4583 18.1766Z" fill="#0075FF"/>
<path d="M11.8417 18.1766C11.8417 18.655 11.4451 19.0516 10.9667 19.0516L6.41675 19.0516C5.93841 19.0516 5.54175 18.655 5.54175 18.1766C5.54175 17.6983 5.93841 17.3016 6.41675 17.3016L10.9667 17.3016C11.4451 17.3016 11.8417 17.6866 11.8417 18.1766Z" fill="#0075FF"/>
<path d="M20.1834 18.1766C20.1834 20.335 18.4334 22.085 16.275 22.085C14.1167 22.085 12.3667 20.335 12.3667 18.1766C12.3667 16.0183 14.1167 14.2683 16.275 14.2683C18.4334 14.2683 20.1834 16.0183 20.1834 18.1766ZM14.1167 18.1766C14.1167 19.3666 15.085 20.335 16.275 20.335C17.465 20.335 18.4334 19.3666 18.4334 18.1766C18.4334 16.9866 17.465 16.0183 16.275 16.0183C15.085 16.0183 14.1167 16.975 14.1167 18.1766Z" fill="#0075FF"/>
</svg>
